# xmcd CD database file
#
# Track frame offsets:
#	150
#	27902
#	66751
#	88828
#	132144
#	159763
#
# Disc length: 2740 seconds
#
# Revision: 0
# Processed by: cddbd v1.5.2PL0 Copyright (c) Steve Scherf et al.
# Submitted via: CDex 1.70beta2
#
DISCID=420ab206
DTITLE=Medwyn Goodall - Serve Chilled
DYEAR=2008
DGENRE=New Age
TTITLE0=01 - crossing the divide
TTITLE1=02 - where imaginations meet
TTITLE2=03 - serve chilled
TTITLE3=04 - ice magic
TTITLE4=05 - keep chilled
TTITLE5=06 - frozen ghosts
EXTD=YEAR: 2008
EXTT0=
EXTT1=
EXTT2=
EXTT3=
EXTT4=
EXTT5=
PLAYORDER=
